<svg width="380" height="380" viewBox="0 0 380 380" fill="none" xmlns="http://www.w3.org/2000/svg">
<path d="M380 190C380 294.934 294.934 380 190 380C85.0659 380 0 294.934 0 190C0 85.0659 85.0659 0 190 0C294.934 0 380 85.0659 380 190ZM56.3308 190C56.3308 263.823 116.177 323.669 190 323.669C263.823 323.669 323.669 263.823 323.669 190C323.669 116.177 263.823 56.3308 190 56.3308C116.177 56.3308 56.3308 116.177 56.3308 190Z" fill="#F6F6F6"/>
<path d="M190 2.22124e-05C227.578 2.05698e-05 264.313 11.1433 295.558 32.0208C326.804 52.8983 351.156 82.5722 365.537 117.29C379.918 152.008 383.68 190.211 376.349 227.067C369.018 263.924 350.922 297.778 324.35 324.35L284.518 284.518C303.212 265.824 315.943 242.007 321.101 216.078C326.258 190.148 323.611 163.272 313.494 138.847C303.377 114.422 286.244 93.5459 264.263 78.8581C242.281 64.1704 216.437 56.3308 190 56.3308L190 2.22124e-05Z" fill="#FF6060"/>
</svg>
